# xmcd
#
# Track frame offsets:
#	150
#	29254
#	50613
#	72868
#	103127
#	131808
#	154166
#	182349
#	207587
#	245640
#
# Disc length: 4440 seconds
#
# Revision: 1
# Processed by: cddbd v1.5.2PL0 Copyright (c) Steve Scherf et al.
# Submitted via: audiograbber 1.83.01
#
DISCID=9111560a
DTITLE=Stanley Turrentine - Music for lovers
DYEAR=1900
DGENRE=
TTITLE0=Little girl blue
TTITLE1=Maybe September
TTITLE2=Never let me go
TTITLE3=What the world needs now is love
TTITLE4=Make someone happy
TTITLE5=Journey into melody
TTITLE6=Spring can really hang you up the most
TTITLE7=Stella by starlight
TTITLE8=My ship
TTITLE9=Daten-CD
EXTD=
EXTT0=
EXTT1=
EXTT2=
EXTT3=
EXTT4=
EXTT5=
EXTT6=
EXTT7=
EXTT8=
EXTT9=
PLAYORDER=
